<svg xmlns="http://www.w3.org/2000/svg" width="19.995" height="20" viewBox="0 0 19.995 20">
  <path id="icon" d="M1525.015,704.009a3.022,3.022,0,0,1-2.13-.868l-.73-.732a1.489,1.489,0,0,0-1.06-.438h-1.031a3.014,3.014,0,0,1-3.01-3.011v-1.034a1.538,1.538,0,0,0-.44-1.071l-.72-.71a3.021,3.021,0,0,1-.01-4.259l.73-.732a1.5,1.5,0,0,0,.44-1.07v-1.02a3.013,3.013,0,0,1,3.01-3.008h1.03a1.511,1.511,0,0,0,1.06-.441l.72-.72a3.016,3.016,0,0,1,4.262-.009l.731.729a1.49,1.49,0,0,0,1.06.441h1.03a3.013,3.013,0,0,1,3.01,3.009V690.1a1.485,1.485,0,0,0,.441,1.058l.72.72a3.03,3.03,0,0,1,.02,4.251l-.02.02-.01.01-.71.71a1.488,1.488,0,0,0-.441,1.061v1.029a3.014,3.014,0,0,1-3.01,3.011h-1.03a1.489,1.489,0,0,0-1.06.438l-.721.72A2.985,2.985,0,0,1,1525.015,704.009Zm2.57-8.3a.875.875,0,1,0,.87.88v-.01a.877.877,0,0,0-.869-.87Zm-.005-5.144a.866.866,0,0,0-.616.254l-5.141,5.14a.88.88,0,0,0,0,1.239.828.828,0,0,0,.61.26.837.837,0,0,0,.62-.26l5.142-5.139a.875.875,0,0,0-.616-1.495Zm-5.135,0a.875.875,0,1,0,.87.88v-.011A.876.876,0,0,0,1522.445,690.566Z" transform="translate(-1515.012 -684.01)" fill="#f4528d"/>
</svg>
