<svg xmlns="http://www.w3.org/2000/svg" width="46.662" height="55.504" viewBox="52.669 44.248 46.662 55.504"><g data-name="Group 40523"><g data-name="Group 40514"><g data-name="Group 40513"><path d="M0 0h2.008v2.008H0V0z" fill-rule="evenodd" fill="url(&quot;#a&quot;)" transform="rotate(-53.36 91.475 -68.302)" data-name="Rectangle 3026"/><path d="M0 0h2.008v2.008H0V0z" fill-rule="evenodd" fill="url(&quot;#b&quot;)" transform="rotate(-53.36 97.467 -71.313)" data-name="Rectangle 3027"/><path d="M0 0h2.008v2.008H0V0z" fill-rule="evenodd" fill="url(&quot;#c&quot;)" transform="rotate(-53.36 90.481 -65.3)" data-name="Rectangle 3028"/><path d="M0 0h2.008v2.008H0V0z" fill-rule="evenodd" fill="url(&quot;#d&quot;)" transform="rotate(-53.36 96.473 -68.31)" data-name="Rectangle 3029"/><path d="M0 0h2.006v2.008H0V0z" fill-rule="evenodd" fill="url(&quot;#e&quot;)" transform="rotate(-53.36 99.474 -67.32)" data-name="Rectangle 3030"/><path d="M0 0h2.008v2.008H0V0z" fill-rule="evenodd" fill="url(&quot;#f&quot;)" transform="rotate(-53.36 98.48 -64.318)" data-name="Rectangle 3031"/><path d="m484.867 378.203-10.843 14.58-6.258-8.41 7.848-10.55 1.611 1.198 1.2-1.61-1.612-1.199 1.197-1.611 1.61 1.2 1.197-1.61.002-.002 3.22 2.396h.001l-1.197 1.61-.002.002-1.61-1.2-1.197 1.61 1.61 1.2-1.198 1.61 1.61 1.198 1.2-1.61 1.61 1.198Z" fill-rule="evenodd" fill="url(&quot;#g&quot;)" transform="translate(-390.327 -322.72)" data-name="Path 47680"/></g><path d="M362.395 411.959c-3.11-4.185-9.375-4.193-12.497-.02a.134.134 0 0 0-.015.018l-15.541-20.895h12.51l15.543 20.897Z" fill-rule="evenodd" fill="url(&quot;#h&quot;)" transform="translate(-280.14 -339.957)" data-name="Path 47681"/></g><g data-name="Group 40515"><path d="M400.186 439.318c-3.11-4.185-9.375-4.192-12.496-.02a.084.084 0 0 0-.015.019l-7.572-10.181 8.831-4.945 11.252 15.127Z" fill-rule="evenodd" fill="url(&quot;#i&quot;)" transform="translate(-317.93 -367.317)" data-name="Path 47682"/></g><g data-name="Group 40517"><path d="M393.383 517.034h-12.51l-9.287-12.486-9.287 12.485-1.612-1.196-1.199 1.61 1.612 1.197-1.198 1.611-1.61-1.197-1.197 1.61-.001.002-3.22-2.399h-.002l1.198-1.61.001-.001 1.61 1.2 1.196-1.61-1.608-1.198-.002-.002 1.2-1.611-1.612-1.197-1.198 1.611-1.611-1.199 12.282-16.515.002-.001a.13.13 0 0 1 .014-.018c3.122-4.173 9.387-4.166 12.498.02l15.541 20.894Z" fill-rule="evenodd" fill="url(&quot;#j&quot;)" transform="translate(-295.586 -424.138)" data-name="Path 47683"/><g data-name="Group 40516"><path d="M0 0h2.008v2.008H0V0z" fill-rule="evenodd" fill="url(&quot;#k&quot;)" transform="rotate(-53.36 126.812 -7.937)" data-name="Rectangle 3032"/><path d="M0 0h2.008v2.008H0V0z" fill-rule="evenodd" fill="url(&quot;#l&quot;)" transform="rotate(-53.36 120.82 -4.926)" data-name="Rectangle 3033"/><path d="m372.22 653.084-1.197 1.611-1.611-1.197 1.197-1.61.002-.001 1.61 1.197Z" fill-rule="evenodd" fill="url(&quot;#m&quot;)" transform="translate(-309.102 -555.357)" data-name="Path 47684"/><path d="m344.475 632.45-1.2 1.61-1.611-1.196 1.2-1.612 1.609 1.197h.002Z" fill-rule="evenodd" fill="url(&quot;#n&quot;)" transform="translate(-286.186 -538.316)" data-name="Path 47685"/><path d="M0 0h2.006v2.008H0V0z" fill-rule="evenodd" fill="url(&quot;#o&quot;)" transform="rotate(-53.36 118.812 -8.922)" data-name="Rectangle 3034"/><path d="m358.224 613.956-1.198 1.608-.001.002-1.61-1.198h-.002l1.2-1.611 1.609 1.197.002.002Z" fill-rule="evenodd" fill="url(&quot;#p&quot;)" transform="translate(-297.54 -523.042)" data-name="Path 47686"/></g></g></g><defs><linearGradient x1=".502" y1=".367" x2=".082" y2="35.203" id="a"><stop stop-color="#fbb03b" offset="0"/><stop stop-color="#ff00e6" offset=".505"/><stop stop-color="#3600d8" offset="1"/></linearGradient><linearGradient x1=".523" y1="-1.393" x2=".103" y2="33.442" id="b"><stop stop-color="#fbb03b" offset="0"/><stop stop-color="#ff00e6" offset=".505"/><stop stop-color="#3600d8" offset="1"/></linearGradient><linearGradient x1=".504" y1=".145" x2=".085" y2="34.98" id="c"><stop stop-color="#fbb03b" offset="0"/><stop stop-color="#ff00e6" offset=".505"/><stop stop-color="#3600d8" offset="1"/></linearGradient><linearGradient x1=".525" y1="-1.616" x2=".106" y2="33.22" id="d"><stop stop-color="#fbb03b" offset="0"/><stop stop-color="#ff00e6" offset=".505"/><stop stop-color="#3600d8" offset="1"/></linearGradient><linearGradient x1=".542" y1="-3.012" x2=".122" y2="31.824" id="e"><stop stop-color="#fbb03b" offset="0"/><stop stop-color="#ff00e6" offset=".505"/><stop stop-color="#3600d8" offset="1"/></linearGradient><linearGradient x1=".545" y1="-3.234" x2=".125" y2="31.602" id="f"><stop stop-color="#fbb03b" offset="0"/><stop stop-color="#ff00e6" offset=".505"/><stop stop-color="#3600d8" offset="1"/></linearGradient><linearGradient x1=".509" y1="-.096" x2=".46" y2="3" id="g"><stop stop-color="#fbb03b" offset="0"/><stop stop-color="#ff00e6" offset=".505"/><stop stop-color="#3600d8" offset="1"/></linearGradient><linearGradient x1=".507" y1="-.288" x2=".477" y2="3.059" id="h"><stop stop-color="#fbb03b" offset="0"/><stop stop-color="#ff00e6" offset=".505"/><stop stop-color="#3600d8" offset="1"/></linearGradient><linearGradient x1=".33" y1=".31" x2="1.046" y2="1.799" id="i"><stop stop-color="rgba(0,0,0,0 )" offset="0"/><stop offset="1"/></linearGradient><linearGradient x1=".514" y1="-.855" x2=".493" y2="1.673" id="j"><stop stop-color="#fbb03b" offset="0"/><stop stop-color="#ff00e6" offset=".505"/><stop stop-color="#00f" offset="1"/></linearGradient><linearGradient x1=".82" y1="-26.077" x2=".401" y2="8.758" id="k"><stop stop-color="#fbb03b" offset="0"/><stop stop-color="#ff00e6" offset=".505"/><stop stop-color="#00f" offset="1"/></linearGradient><linearGradient x1=".799" y1="-24.317" x2=".379" y2="10.519" id="l"><stop stop-color="#fbb03b" offset="0"/><stop stop-color="#ff00e6" offset=".505"/><stop stop-color="#00f" offset="1"/></linearGradient><linearGradient x1=".727" y1="-18.34" x2=".427" y2="6.563" id="m"><stop stop-color="#fbb03b" offset="0"/><stop stop-color="#ff00e6" offset=".505"/><stop stop-color="#00f" offset="1"/></linearGradient><linearGradient x1=".712" y1="-17.082" x2=".412" y2="7.821" id="n"><stop stop-color="#fbb03b" offset="0"/><stop stop-color="#ff00e6" offset=".505"/><stop stop-color="#00f" offset="1"/></linearGradient><linearGradient x1=".78" y1="-22.698" x2=".36" y2="12.137" id="o"><stop stop-color="#fbb03b" offset="0"/><stop stop-color="#ff00e6" offset=".505"/><stop stop-color="#00f" offset="1"/></linearGradient><linearGradient x1=".698" y1="-15.925" x2=".398" y2="8.978" id="p"><stop stop-color="#fbb03b" offset="0"/><stop stop-color="#ff00e6" offset=".505"/><stop stop-color="#00f" offset="1"/></linearGradient></defs></svg>