<svg xmlns="http://www.w3.org/2000/svg" xmlns:xlink="http://www.w3.org/1999/xlink" width="20.435" height="24.307" viewBox="0 0 20.435 24.307">
  <defs>
    <linearGradient id="linear-gradient" x1="0.502" y1="0.367" x2="0.082" y2="35.203" gradientUnits="objectBoundingBox">
      <stop offset="0" stop-color="#fbb03b"/>
      <stop offset="0.505" stop-color="#ff00e6"/>
      <stop offset="1" stop-color="#3600d8"/>
    </linearGradient>
    <linearGradient id="linear-gradient-2" x1="0.523" y1="-1.393" x2="0.103" y2="33.442" xlink:href="#linear-gradient"/>
    <linearGradient id="linear-gradient-3" x1="0.504" y1="0.145" x2="0.085" y2="34.98" xlink:href="#linear-gradient"/>
    <linearGradient id="linear-gradient-4" x1="0.525" y1="-1.616" x2="0.106" y2="33.22" xlink:href="#linear-gradient"/>
    <linearGradient id="linear-gradient-5" x1="0.542" y1="-3.012" x2="0.122" y2="31.824" xlink:href="#linear-gradient"/>
    <linearGradient id="linear-gradient-6" x1="0.545" y1="-3.234" x2="0.125" y2="31.602" xlink:href="#linear-gradient"/>
    <linearGradient id="linear-gradient-7" x1="0.509" y1="-0.096" x2="0.46" y2="3" xlink:href="#linear-gradient"/>
    <linearGradient id="linear-gradient-8" x1="0.507" y1="-0.288" x2="0.477" y2="3.059" xlink:href="#linear-gradient"/>
    <linearGradient id="linear-gradient-9" x1="0.33" y1="0.31" x2="1.046" y2="1.799" gradientUnits="objectBoundingBox">
      <stop offset="0" stop-opacity="0"/>
      <stop offset="1"/>
    </linearGradient>
    <linearGradient id="linear-gradient-10" x1="0.514" y1="-0.855" x2="0.493" y2="1.673" gradientUnits="objectBoundingBox">
      <stop offset="0" stop-color="#fbb03b"/>
      <stop offset="0.505" stop-color="#ff00e6"/>
      <stop offset="1" stop-color="#6149cd"/>
    </linearGradient>
    <linearGradient id="linear-gradient-11" x1="0.82" y1="-26.077" x2="0.401" y2="8.758" gradientUnits="objectBoundingBox">
      <stop offset="0" stop-color="#fbb03b"/>
      <stop offset="0.505" stop-color="#ff00e6"/>
      <stop offset="1" stop-color="blue"/>
    </linearGradient>
    <linearGradient id="linear-gradient-12" x1="0.799" y1="-24.317" x2="0.379" y2="10.519" xlink:href="#linear-gradient-11"/>
    <linearGradient id="linear-gradient-13" x1="0.727" y1="-18.34" x2="0.427" y2="6.563" xlink:href="#linear-gradient-11"/>
    <linearGradient id="linear-gradient-14" x1="0.712" y1="-17.082" x2="0.412" y2="7.821" xlink:href="#linear-gradient-11"/>
    <linearGradient id="linear-gradient-15" x1="0.78" y1="-22.698" x2="0.36" y2="12.137" xlink:href="#linear-gradient-11"/>
    <linearGradient id="linear-gradient-16" x1="0.698" y1="-15.925" x2="0.398" y2="8.978" xlink:href="#linear-gradient-11"/>
  </defs>
  <g id="Group_40545" data-name="Group 40545" transform="translate(-969.001 -606.706)">
    <g id="Group_40544" data-name="Group 40544" transform="translate(969.001 606.706)">
      <g id="Group_40514" data-name="Group 40514" transform="translate(0.672 0)">
        <g id="Group_40513" data-name="Group 40513" transform="translate(10.176 0)">
          <rect id="Rectangle_3026" data-name="Rectangle 3026" width="0.879" height="0.879" transform="translate(6.241 0.706) rotate(-53.36)" fill="url(#linear-gradient)"/>
          <rect id="Rectangle_3027" data-name="Rectangle 3027" width="0.879" height="0.879" transform="matrix(0.597, -0.802, 0.802, 0.597, 8.357, 2.279)" fill="url(#linear-gradient-2)"/>
          <rect id="Rectangle_3028" data-name="Rectangle 3028" width="0.879" height="0.879" transform="matrix(0.597, -0.802, 0.802, 0.597, 5.01, 0.886)" fill="url(#linear-gradient-3)"/>
          <rect id="Rectangle_3029" data-name="Rectangle 3029" width="0.879" height="0.879" transform="matrix(0.597, -0.802, 0.802, 0.597, 7.126, 2.46)" fill="url(#linear-gradient-4)"/>
          <rect id="Rectangle_3030" data-name="Rectangle 3030" width="0.878" height="0.879" transform="translate(7.308 3.69) rotate(-53.36)" fill="url(#linear-gradient-5)"/>
          <rect id="Rectangle_3031" data-name="Rectangle 3031" width="0.879" height="0.879" transform="matrix(0.597, -0.802, 0.802, 0.597, 6.078, 3.871)" fill="url(#linear-gradient-6)"/>
          <path id="Path_47680" data-name="Path 47680" d="M475.255,373.7l-4.748,6.385-2.741-3.683,3.437-4.621.706.525.525-.7-.706-.525.524-.706.7.525.524-.7h0l1.41,1.049h0l-.524.7h0l-.7-.525-.524.7.7.525-.524.706.7.524.525-.7Z" transform="translate(-467.766 -368.778)" fill="url(#linear-gradient-7)"/>
        </g>
        <path id="Path_47681" data-name="Path 47681" d="M346.628,400.213a3.414,3.414,0,0,0-5.473-.009l-.006.008-6.806-9.151h5.479Z" transform="translate(-334.342 -388.059)" fill="url(#linear-gradient-8)"/>
      </g>
      <g id="Group_40515" data-name="Group 40515" transform="translate(4.162 5.529)" opacity="0.47">
        <path id="Path_47682" data-name="Path 47682" d="M388.9,430.816a3.414,3.414,0,0,0-5.473-.009l-.006.008-3.316-4.459,3.867-2.165Z" transform="translate(-380.103 -424.191)" fill="url(#linear-gradient-9)"/>
      </g>
      <g id="Group_40517" data-name="Group 40517" transform="translate(0 10.777)">
        <path id="Path_47683" data-name="Path 47683" d="M370.711,503.523h-5.479l-4.067-5.468-4.067,5.468-.706-.524-.525.7.706.524-.524.706-.7-.524-.524.7h0l-1.41-1.05h0l.524-.7h0l.7.525.524-.7-.7-.524h0l.525-.706-.706-.524-.524.706-.706-.525,5.379-7.232h0l.006-.008a3.414,3.414,0,0,1,5.473.009Z" transform="translate(-350.948 -492.995)" fill="url(#linear-gradient-10)"/>
        <g id="Group_40516" data-name="Group 40516" transform="translate(0 9.134)">
          <rect id="Rectangle_3032" data-name="Rectangle 3032" width="0.879" height="0.879" transform="matrix(0.597, -0.802, 0.802, 0.597, 2.116, 3.871)" fill="url(#linear-gradient-11)"/>
          <rect id="Rectangle_3033" data-name="Rectangle 3033" width="0.879" height="0.879" transform="matrix(0.597, -0.802, 0.802, 0.597, 0, 2.297)" fill="url(#linear-gradient-12)"/>
          <path id="Path_47684" data-name="Path 47684" d="M370.642,652.411l-.524.706-.706-.524.524-.7h0Z" transform="translate(-366.066 -648.902)" fill="url(#linear-gradient-13)"/>
          <path id="Path_47685" data-name="Path 47685" d="M342.895,631.776l-.525.706-.706-.524.525-.706.7.524Z" transform="translate(-340.434 -629.841)" fill="url(#linear-gradient-14)"/>
          <rect id="Rectangle_3034" data-name="Rectangle 3034" width="0.878" height="0.879" transform="matrix(0.597, -0.802, 0.802, 0.597, 1.05, 0.886)" fill="url(#linear-gradient-15)"/>
          <path id="Path_47686" data-name="Path 47686" d="M356.644,613.282l-.524.7h0l-.7-.524h0l.525-.706.7.524Z" transform="translate(-353.134 -612.757)" fill="url(#linear-gradient-16)"/>
        </g>
      </g>
    </g>
  </g>
</svg>
