<svg xmlns="http://www.w3.org/2000/svg" width="17.665" height="12.119" viewBox="2.098 0 17.665 12.119"><path d="M370.711 503.523h-5.479l-4.067-5.468-4.067 5.467-.706-.524-.525.705.706.525-.524.705-.705-.524-.525.705-1.41-1.05h-.001l.524-.704.001-.001.705.525.523-.705-.704-.524v-.001l.525-.706-.706-.524-.524.706-.706-.525 5.379-7.233a.056.056 0 0 1 .007-.008c1.367-1.828 4.11-1.824 5.473.008l6.806 9.15Z" fill-rule="evenodd" fill="url(&quot;#a&quot;)" transform="translate(-350.948 -492.995)" data-name="Path 47683"/><defs><linearGradient x1=".514" y1="-.855" x2=".493" y2="1.673" id="a"><stop stop-color="#fbb03b" offset="0"/><stop stop-color="#ff00e6" offset=".505"/><stop stop-color="#6149cd" offset="1"/></linearGradient></defs></svg>