<svg xmlns="http://www.w3.org/2000/svg" width="20.004" height="18.001" viewBox="0 0 20.004 18.001">
  <path id="icon" d="M1529.511,501.991h-9.025a5.638,5.638,0,0,1-4.034-1.41,5.317,5.317,0,0,1-1.448-3.925V489.34a5.318,5.318,0,0,1,1.448-3.925,5.639,5.639,0,0,1,4.034-1.41h9.026a5.616,5.616,0,0,1,4.034,1.416,5.387,5.387,0,0,1,1.447,3.962h-4.229v.034a3.582,3.582,0,0,0-2.512,1.016,3.4,3.4,0,0,0-1.042,2.447,3.514,3.514,0,0,0,3.554,3.464h4.229v.311a5.318,5.318,0,0,1-1.448,3.925A5.638,5.638,0,0,1,1529.511,501.991Zm-9.772-14.1a.756.756,0,0,0-.764.735.765.765,0,0,0,.764.753h5.642a.744.744,0,1,0,0-1.489h-5.642Zm14.507,6.961h-3.432a2.1,2.1,0,0,1-2.058-1.593,1.976,1.976,0,0,1,.433-1.651,2.088,2.088,0,0,1,1.575-.739h3.482a.738.738,0,0,1,.747.726v2.529a.75.75,0,0,1-.747.726Zm-3.341-2.815a.756.756,0,0,0-.53.212.732.732,0,0,0-.225.524.766.766,0,0,0,.765.753h.329a.744.744,0,1,0,0-1.489h-.339Z" transform="translate(-1514.997 -483.998)" fill="#6149cd"/>
</svg>
