<svg xmlns="http://www.w3.org/2000/svg" width="19.981" height="20" viewBox="0 0 19.981 20">
  <path id="icon" d="M788.977,619a3.827,3.827,0,0,1-3.8-3.847l-.072-5.166a.211.211,0,0,1,.09-.172.127.127,0,0,1,.071-.02.2.2,0,0,1,.119.041,17.047,17.047,0,0,0,6.993,2.632.718.718,0,0,0,.1.006.752.752,0,0,0,.721-.554,1.823,1.823,0,0,1,1.778-1.377h.031a1.823,1.823,0,0,1,1.778,1.377.752.752,0,0,0,.722.554.721.721,0,0,0,.1-.006,17.047,17.047,0,0,0,6.993-2.632l.04-.021a.182.182,0,0,1,.08-.019.132.132,0,0,1,.07.019.211.211,0,0,1,.09.172l-.08,5.165A3.827,3.827,0,0,1,801.012,619Zm5.268-6.248v1.307a.755.755,0,0,0,.749.759.746.746,0,0,0,.75-.741c0-.006,0-.012,0-.018v-1.307a.756.756,0,0,0-.75-.76A.765.765,0,0,0,794.245,612.752Zm3.6-2.078A3.3,3.3,0,0,0,795,609.025a3.354,3.354,0,0,0-2.87,1.642.327.327,0,0,1-.276.166.282.282,0,0,1-.056-.005,15.5,15.5,0,0,1-5.619-2.268l-.96-.669a.289.289,0,0,1-.13-.243c-.029-.507-.08-2.161-.08-2.177a3.837,3.837,0,0,1,3.808-3.858h1.969A2.976,2.976,0,0,1,793.7,599h2.579a2.975,2.975,0,0,1,2.918,2.613h1.979a3.837,3.837,0,0,1,3.813,3.858c0,.009-.059.913-.08,2.154a.33.33,0,0,1-.129.256c-.471.347-.917.647-.96.669a15.307,15.307,0,0,1-5.642,2.288.283.283,0,0,1-.057.005.325.325,0,0,1-.278-.169Zm-5.54-9.061h5.378a1.446,1.446,0,0,0-1.4-1.093H793.7A1.447,1.447,0,0,0,792.3,601.613Z" transform="translate(-785.009 -599)" fill="#fc8d5e"/>
</svg>
